<?xml version="1.0" encoding="UTF-8" standalone="no"?>
<svg width="1024" height="1024" viewBox="0 0 270.93333 270.93333" version="1.1" xmlns:xlink="http://www.w3.org/1999/xlink" xmlns="http://www.w3.org/2000/svg" xmlns:svg="http://www.w3.org/2000/svg">
  <path fill="#ea5732" stroke="none" d="m 139.43542,25.323444 c -5.84942,0.05192 -9.73741,4.803857 -11.14312,10.130728 -2.64839,10.035918 -2.35063,20.926354 -2.35063,31.220832 0,3.787026 0.37634,7.747669 -0.93871,11.377082 -0.60338,1.665289 -2.10292,3.584051 -4.08838,3.340978 -4.10885,-0.503037 -6.69448,-6.604247 -7.92341,-9.955561 -3.58951,-9.788565 -2.42568,-22.75213 -10.11337,-30.66778 -5.13462,-5.286871 -15.664209,-4.297655 -16.577695,4.209448 -0.701572,6.533597 4.587777,12.803078 7.419564,18.256249 4.232502,8.15052 7.119151,16.715145 12.384981,24.341666 4.18943,6.067556 10.21979,10.54099 14.27975,16.668744 6.61989,9.99151 7.18635,22.89584 8.54322,34.39584 0.96027,8.13868 0.52591,17.93466 -1.30618,25.92916 -0.56668,2.47275 -1.36788,6.90775 -4.06204,7.93098 -1.60752,0.61051 -3.17842,-0.80483 -4.22844,-1.84965 -2.84285,-2.82878 -4.5,-6.68875 -5.29452,-10.57924 -2.21167,-10.82975 2.37941,-20.54778 2.64094,-31.22084 0.10095,-4.11993 -0.61369,-9.71171 -5.02321,-11.51386 -3.68838,-1.50743 -7.34821,1.08202 -8.41114,4.6347 -1.77926,5.94689 1.10146,11.81993 1.50829,17.72708 0.15795,2.29342 0.002,8.71483 -3.94507,6.31079 -2.972572,-1.81029 -4.796976,-5.83986 -6.031518,-8.95662 -4.166807,-10.51964 -0.987254,-22.38126 1.91047,-32.80834 1.500813,-5.400489 3.026567,-12.38824 -0.257438,-17.462284 -2.55313,-3.944785 -8.410888,-4.476051 -10.470024,0.264373 -2.41953,5.570122 -0.135989,11.269047 -0.993003,16.933331 -0.438054,2.89525 -2.56072,4.78062 -5.035868,2.35349 -3.105656,-3.0454 -3.502886,-8.34038 -4.104917,-12.407654 C 74.458798,84.704199 74.459299,75.029209 71.346246,66.145837 69.523263,60.943781 64.13453,54.226701 57.943754,57.776145 c -3.340227,1.915096 -4.274787,5.59315 -4.232312,9.163442 0.0841,7.06898 4.789162,13.668141 8.161251,19.579166 1.148004,2.01236 3.225582,4.983271 3.106609,7.408333 -0.08705,1.774471 -1.866742,3.416474 -3.595965,2.785262 -4.566206,-1.666791 -7.045399,-6.825164 -11.641666,-8.460949 -6.658035,-2.369575 -10.129319,4.996238 -8.038555,10.438186 1.879669,4.892515 6.357852,7.546195 10.684388,10.014355 6.946096,3.96254 14.483192,7.21203 20.371899,12.76349 5.482013,5.16804 8.125642,12.87048 11.195181,19.55549 3.000673,6.53501 6.700616,12.70377 10.514934,18.78541 3.516816,5.60728 7.377312,11.07631 9.965772,17.19792 0.73609,1.74082 2.30031,5.29911 0.93707,7.0527 -1.85278,2.3833 -7.046666,-0.17295 -9.064025,-1.16735 -7.791756,-3.84076 -14.171259,-10.82998 -17.923275,-18.58535 -1.512133,-3.12555 -2.428816,-6.83566 -2.428816,-10.31875 0,-3.70497 1.041748,-7.40872 0.239883,-11.1125 -0.79681,-3.68043 -3.033285,-7.05341 -7.139874,-6.9549 -6.729215,0.16142 -5.187223,6.9456 -5.581155,11.45282 -0.142203,1.627 -1.484744,3.06254 -3.149073,2.11014 -1.876912,-1.07405 -2.899346,-3.41933 -3.783788,-5.28514 -2.643916,-5.5776 -2.553272,-12.62727 -6.065206,-17.72709 -3.022127,-4.38855 -8.727374,-5.69616 -12.616909,-1.58341 -3.364915,3.55803 -3.010984,9.38336 -1.763685,13.75425 2.98362,10.45546 12.26102,18.3102 20.5244,24.75855 3.150842,2.45876 10.335537,6.43205 9.464571,11.22458 -0.588094,3.23601 -4.78397,1.86239 -6.818737,1.13836 -4.914998,-1.74895 -15.697531,-8.92548 -18.750098,-0.609 -0.33595,0.91526 -0.346584,1.94772 -0.276017,2.91042 0.50506,6.89015 8.886311,10.49364 14.528198,12.26107 8.460215,2.65034 17.266977,1.52554 25.929166,2.63114 7.261983,0.92688 14.272109,3.86613 20.10833,8.25231 1.45411,1.09282 2.93971,2.28466 4.20965,3.58881 5.54403,5.69336 12.80021,18.00502 6.37267,25.38571 -3.13337,3.59802 -7.51748,4.06894 -11.37587,6.47759 -1.962037,1.22483 -3.309654,3.61343 -2.770563,5.9617 1.285854,5.60118 10.976833,3.96875 15.205783,3.96875 10.13939,0 20.27147,-0.38437 30.42708,-0.26357 6.44754,0.0767 13.12843,0.84291 19.57917,0.21866 4.09398,-0.39618 8.42645,-3.80844 5.38455,-8.15717 -2.86696,-4.09862 -8.35383,-3.79383 -11.97546,-6.79465 -8.20008,-6.79446 -0.46451,-17.44846 5.53257,-22.53857 8.13886,-6.90798 19.89462,-10.01136 30.42708,-9.55011 7.56597,0.33132 14.91652,1.87982 22.48959,0.71066 5.8727,-0.90666 15.64025,-4.70692 13.88287,-12.36275 -1.91676,-8.35016 -12.54261,-3.09125 -17.58704,-1.82432 -1.99416,0.50084 -6.99019,1.62065 -6.44962,-2.14443 0.52274,-3.64092 5.33218,-6.27339 8.03712,-8.20208 8.74827,-6.23776 19.15587,-13.41875 22.75315,-24.07708 1.68368,-4.98857 1.36335,-12.68073 -5.02607,-14.14746 -4.52695,-1.03916 -8.75232,1.92547 -11.26376,5.41621 -5.02791,6.98846 -6.73067,15.77502 -12.26394,22.48958 -2.19088,2.65862 -4.96725,5.5277 -8.2223,6.85446 -1.06929,0.43586 -2.58259,1.04133 -3.69273,0.4659 -2.51965,-1.30608 -1.43107,-4.34961 -0.47486,-6.26202 2.27969,-4.55938 6.28386,-8.64237 6.28386,-14.02292 0,-2.84143 -1.31396,-5.74506 -4.49752,-6.05764 -5.60516,-0.55036 -9.47842,5.3796 -11.70618,9.76181 -3.1812,6.25775 -4.86319,13.12398 -8.21923,19.31458 -3.43382,6.33406 -8.48984,11.51289 -14.20583,15.8407 -3.8032,2.87954 -7.70648,6.05066 -12.17084,7.85196 -1.8313,0.73889 -4.39243,1.20627 -5.47214,-0.94258 -1.16639,-2.32136 -0.0486,-6.35567 0.54428,-8.72717 1.97849,-7.91395 6.18877,-14.95444 11.04676,-21.43125 10.56721,-14.08846 23.66407,-26.51086 39.9186,-33.63883 9.84525,-4.31736 20.36626,-6.6246 29.36875,-12.75429 4.03008,-2.74404 8.33794,-6.56847 10.03028,-11.28604 2.3895,-6.66099 -2.05325,-15.63811 -10.03028,-12.576491 -9.12039,3.500451 -11.92534,13.800321 -19.31458,19.421151 -1.99873,1.52038 -8.42546,5.52762 -8.86374,0.29909 -0.38152,-4.5514 3.58444,-9.93873 5.95332,-13.49375 5.23615,-7.857932 11.15479,-15.776941 14.65763,-24.606247 2.2186,-5.592229 3.37215,-13.812658 -2.4868,-17.661147 -4.18411,-2.748362 -9.7177,0.561707 -12.35885,3.903832 -4.08318,5.166884 -4.28433,12.408915 -5.93741,18.519815 -0.75406,2.787507 -1.65841,6.18428 -3.93935,8.141653 -1.92707,1.653711 -3.59781,-0.104644 -4.20822,-2.056237 -1.17254,-3.748802 -0.40065,-7.803238 -2.37064,-11.377083 -2.34197,-4.248674 -8.01498,-6.027829 -11.23357,-1.586482 -3.54083,4.886022 -0.85135,11.094283 1.33721,15.873982 3.06815,6.700672 5.98517,14.595744 3.60842,21.960414 -0.80463,2.49326 -1.97507,5.49461 -4.32071,6.94735 -3.1585,1.95616 -4.87217,-2.83851 -5.26921,-5.09527 -0.95835,-5.4474 0.13972,-11.34746 -2.61479,-16.40416 -1.65008,-3.029209 -5.3199,-4.898152 -8.51996,-2.911839 -4.51721,2.803869 -4.83588,9.485889 -3.43283,14.024339 3.09033,9.99627 8.70028,19.11432 3.7552,29.63333 -1.82565,3.88347 -4.69671,7.80658 -8.25987,10.26035 -1.35158,0.93079 -3.33351,2.1023 -5.02606,1.4495 -2.46758,-0.95172 -2.20796,-4.03719 -2.45781,-6.1536 -0.71065,-6.01955 -0.18696,-12.20215 -0.76312,-18.25625 -0.62038,-6.51864 -1.60186,-13.03003 -0.6733,-19.57917 2.07903,-14.663263 12.73272,-24.997354 22.19437,-35.45416 5.91595,-6.538199 12.81837,-12.195508 17.76934,-19.579166 2.19674,-3.276108 4.35781,-7.340217 3.14458,-11.377082 -2.20809,-7.347161 -10.94811,-5.066826 -15.40258,-1.752041 -7.69136,5.723487 -9.70553,16.399143 -15.52202,23.712456 -2.36915,2.978839 -6.71453,6.341053 -9.70629,2.115649 -1.84701,-2.608626 -1.27364,-6.31641 -0.80926,-9.259399 1.12854,-7.152147 4.87374,-13.539224 4.8709,-20.902082 -0.002,-5.418338 -3.15649,-11.243241 -9.26041,-11.189061 z"/>
</svg>